. 
  
http://www.torrentday.com/        :     The Hottest Private Tracker On The Net!!!
 
http://www.torrentday.com          :     Once & For all ;)


               www . TorrentDay . Com 

(((((((((((((= Enjoy No RAR releases =))))))))))))))))))))


...................................NFO:....................................

.[img]http://img545.imageshack.us/img545/5826/coverdj.jpg[/img]

The Tourist 2010 R5 XVID AC3 5.1 HC-Subs HQ Hive-CM8



[b]Thx Hive


CM8 Doing It Right The First Time :D


Videosource:

Russian R5 DVD-5
Turist.2010.D.DVD.ELEKTRI4KA

Audiosource:

The.Tourist.2010.R5.LiNE.AC3.XViD-T0XiC-iNK
thx

Encode:

added brightness,sharpness,chroma,rgb, denoise and made custom subs for 
the foreign parts and hardcoded them within

Video: 720x304 @bitrate 1800 2pass
Audio: English 5.1 @448
Sample: yes included
Subs: yes own, for the foreign parts hardcoded
[/b]
 
http://www.imdb.com/title/tt1243957/


General
Complete name                    : The.Tourist.2010.R5.XVID.AC3-5.1.HC-Subs.HQ.Hive-CM8.avi
Format                           : AVI
Format/Info                      : Audio Video Interleave
File size                        : 1.57 GiB
Duration                         : 1h 39mn
Overall bit rate                 : 2 258 Kbps
Writing application              : Nandub v1.0rc2
Writing library                  : Nandub build 1853/release

Video
ID                               : 0
Format                           : MPEG-4 Visual
Format profile                   : Advanced Simple@L5
Format settings, BVOP            : Yes
Format settings, QPel            : Yes
Format settings, GMC             : No warppoints
Format settings, Matrix          : Default (H.263)
Muxing mode                      : Packed bitstream
Codec ID                         : XVID
Codec ID/Hint                    : XviD
Duration                         : 1h 39mn
Bit rate                         : 1 800 Kbps
Width                            : 720 pixels
Height                           : 304 pixels
Display aspect ratio             : 2.35:1
Frame rate                       : 25.000 fps
Color space                      : YUV
Chroma subsampling               : 4:2:0
Bit depth                        : 8 bits
Scan type                        : Progressive
Bits/(Pixel*Frame)               : 0.329
Stream size                      : 1.25 GiB (80%)
Writing library                  : XviD 1.2.1 (UTC 2008-12-04)

Audio
ID                               : 1
Format                           : AC-3
Format/Info                      : Audio Coding 3
Mode extension                   : CM (complete main)
Codec ID                         : 2000
Duration                         : 1h 39mn
Bit rate mode                    : Constant
Bit rate                         : 448 Kbps
Channel(s)                       : 6 channels
Channel positions                : Front: L C R, Side: L R, LFE
Sampling rate                    : 48.0 KHz
Bit depth                        : 16 bits
Stream size                      : 318 MiB (20%)
Alignment                        : Split accross interleaves
Interleave, duration             : 40 ms (1.00 video frame)
Interleave, preload duration     : 500 ms




Johnny Depp ... Frank Tupelo
Angelina Jolie ... Elise Clifton-Ward
Paul Bettany ... Inspector John Acheson  
  



Revolves around Frank, an American tourist visiting Italy to mend a broken heart. 
Elise is an extraordinary woman who deliberately crosses his path.




[img]http://img402.imageshack.us/img402/1967/90462407.png[/img]
[img]http://img695.imageshack.us/img695/2267/ttoo.png[/img]
[img]http://img146.imageshack.us/img146/5490/tttooo.png[/img]
[img]http://img511.imageshack.us/img511/8159/tttotooo.png[/img]
[img]http://img27.imageshack.us/img27/5161/tttototooo.png[/img]
[img]http://img209.imageshack.us/img209/3277/tttotototooo.png[/img]
[img]http://img256.imageshack.us/img256/3621/tttototototooo.png[/img]
[img]http://img543.imageshack.us/img543/2599/tttotototottoooo.png[/img]
[img]http://img192.imageshack.us/img192/5575/tttotototottotoooo.png[/img]
[img]http://img225.imageshack.us/img225/120/tttotototottototooo.png[/img]


covers:

[img]http://img341.imageshack.us/img341/3645/thetourist2010frontcove.jpg[/img]

[img]http://img340.imageshack.us/img340/9366/thetourist2010cdcover48.jpg[/img]




Greetz

iNK,LUSi,,MAGNET,CLASSiFiED,THC,LEGi0N,IMAGiNE,ViSiON,WBZ,FLAWL3SS,NOVA
Rapeseed,D2U,SAFC,goldadvance,MEMORY100,KaN1vE,Unevano,Pinnz,Wayne,Mr Hive
and all P2P groups 
Great Work Guys :D